# xmcd
# Copyright (C) 1995-1998 Ti Kan
#
# Track frame offsets:
#       150
#       12245
#       22334
#       36826
#       57512
#       73389
#       91968
#       101368
#       115913
#       130234
#       145484
#       160636
#       172922
#       192586
#       213592
#       236130
#
# Disc length: 3523 seconds
#
# Revision: 0
# Processed by: cddbd v1.5.2PL0 Copyright (c) Steve Scherf et al.
# Submitted via: CD-Import v1.0
#
DISCID=ed0dc110
DTITLE=F - Winti Kickt, Winti Rockt Weisses Album
DYEAR=10
DGENRE=
TTITLE0=Futbol
TTITLE1=When Hell's Bells Ring
TTITLE2=En Tant Que Ballon
TTITLE3=The Lion Doesn't Sleep Tonight
TTITLE4=One More Fucking Goal
TTITLE5=Pain Or Glory
TTITLE6=Futbol
TTITLE7=Gwitterfront
TTITLE8=Standimng Together
TTITLE9=Suffer For My Soccer
TTITLE10=Women's Soccer
TTITLE11=Mir Sind Winti
TTITLE12=Es Gibt Nur Einen Fcw
TTITLE13=11 Freunde
TTITLE14=Football Terraces
TTITLE15=Fcwww
EXTD=
EXTT0=
EXTT1=
EXTT2=
EXTT3=
EXTT4=
EXTT5=
EXTT6=
EXTT7=
EXTT8=
EXTT9=
EXTT10=
EXTT11=
EXTT12=
EXTT13=
EXTT14=
EXTT15=
PLAYORDER=
